<svg width="64" height="64" viewBox="0 0 64 64" fill="none" xmlns="http://www.w3.org/2000/svg">
<g clip-path="url(#clip0_79_1101)">
<path d="M31.0098 30.2224V25.5642C31.0098 24.9392 30.5117 24.529 29.8965 24.656L23.5879 26.033C22.8457 26.1892 22.4453 26.5994 22.4453 27.2537L22.4746 41.1404C22.5332 41.7947 22.2109 42.2341 21.6347 42.3513L19.6328 42.7712C17.1621 43.279 17.5 44.125 17.5 46C17.5 47.875 17.9492 48.5 20 48.5C21.8261 48.5 24.0078 48.2497 24.0078 44.6462V33.24C24.0078 32.5369 24.1543 32.3708 24.7988 32.2244L30.375 31.0037C30.7656 30.9158 31.0098 30.6228 31.0098 30.2224Z" fill="white"/>
</g>
<path d="M30 25.0017H32V46.0017C32 46.554 31.5523 47.0017 31 47.0017V47.0017C30.4477 47.0017 30 46.554 30 46.0017V25.0017Z" fill="white"/>
<path d="M38 23H39C39.5523 23 40 23.4477 40 24V45C40 45.5523 39.5523 46 39 46V46C38.4477 46 38 45.5523 38 45V23Z" fill="white"/>
<path d="M30.4611 30.9473L30.4659 25.0017C29.0002 25.0017 28 25.0017 33.0001 24.0017L38.33 23.01C38.36 23.0045 38.3921 23.0016 38.4226 23.0016C39.9803 23 39 23.0049 39 23.4999L39.0099 28.2224C39.0099 28.6228 38.7657 28.9157 38.3751 29.0036L32.7989 30.2243C32.1715 30.3669 30.5469 30.3023 30.4611 30.9473L30.461 31.0278L30.4575 31.0017C30.4575 30.983 30.4587 30.9649 30.4611 30.9473Z" fill="white"/>
<g clip-path="url(#clip1_79_1101)">
<path d="M43.7008 16.155C43.754 16.155 43.7806 16.1203 43.7906 16.0683C43.907 15.3581 43.897 15.2992 44.6551 15.1676C44.705 15.1606 44.7349 15.1294 44.7349 15.0775C44.7349 15.0255 44.705 14.9909 44.6551 14.9839C43.897 14.8523 43.907 14.7934 43.7906 14.0831C43.7806 14.0312 43.754 14 43.7008 14C43.6476 14 43.621 14.0312 43.6111 14.0831C43.4947 14.7934 43.5047 14.8523 42.7466 14.9839C42.6967 14.9909 42.6667 15.0255 42.6667 15.0775C42.6667 15.1294 42.6967 15.1606 42.7466 15.1676C43.5047 15.2992 43.4947 15.3581 43.6111 16.0683C43.621 16.1203 43.6476 16.155 43.7008 16.155Z" fill="white" fill-opacity="0.85"/>
<path d="M41.6093 19.2072C41.6758 19.2072 41.7257 19.1587 41.7357 19.0894C41.8953 17.8907 41.9219 17.9011 43.1056 17.6655C43.1687 17.6517 43.2186 17.6066 43.2186 17.5339C43.2186 17.4611 43.1687 17.4126 43.1056 17.4022C41.9219 17.2151 41.8919 17.1909 41.7357 15.9817C41.7257 15.909 41.6758 15.8605 41.6093 15.8605C41.5428 15.8605 41.4929 15.909 41.483 15.9852C41.3333 17.1805 41.2901 17.1666 40.1131 17.4022C40.0499 17.4161 40 17.4611 40 17.5339C40 17.6101 40.0499 17.6517 40.1264 17.6655C41.2968 17.8699 41.3333 17.8872 41.483 19.0825C41.4929 19.1587 41.5428 19.2072 41.6093 19.2072Z" fill="white" fill-opacity="0.85"/>
<path d="M44.5187 24.1754C44.6217 24.1754 44.6982 24.1027 44.7115 23.9918C45.0041 21.4731 45.3167 21.1405 47.6941 20.8806C47.8038 20.8702 47.877 20.7905 47.877 20.6831C47.877 20.5757 47.8038 20.4926 47.6941 20.4822C45.3167 20.2223 45.0041 19.8897 44.7115 17.371C44.6982 17.2636 44.6217 17.1874 44.5187 17.1874C44.4156 17.1874 44.3424 17.2636 44.3258 17.371C44.0332 19.8897 43.7207 20.2223 41.3433 20.4822C41.2336 20.4926 41.1604 20.5757 41.1604 20.6831C41.1604 20.7905 41.2336 20.8702 41.3433 20.8806C43.714 21.1994 44.0133 21.4765 44.3258 23.9918C44.3424 24.1027 44.4156 24.1754 44.5187 24.1754Z" fill="white" fill-opacity="0.85"/>
</g>
<defs>
<clipPath id="clip0_79_1101">
<rect width="15.3711" height="25.5762" fill="white" transform="translate(16 24.0017)"/>
</clipPath>
<clipPath id="clip1_79_1101">
<rect width="8" height="11" fill="white" transform="translate(40 14)"/>
</clipPath>
</defs>
</svg>
